<svg xmlns="http://www.w3.org/2000/svg" width="312.463" height="48.509" viewBox="0 0 312.463 48.509"><defs><style>.a{fill:#fff;}.b{fill:#ccc;}.c{fill:#4db2eb;}.d{opacity:0.4;}</style></defs><g transform="translate(-5.185 -287.078)"><g transform="translate(5.185 287.078)"><g transform="translate(66.103 18.082)"><g transform="translate(0 0.005)"><path class="a" d="M140.951,329.62l-3.388-9.191H135.38l-3.4,9.191-4.344-9.191h-2.521l5.835,12.341h2.319l3.206-8.594,3.2,8.594h2.312l5.87-12.341h-2.546Z" transform="translate(-125.114 -320.427)"/><path class="a" d="M185.463,323.1l5.7,9.665h2.658l-7.25-12.341h-2.2l-7.234,12.341h2.641Z" transform="translate(-148.462 -320.427)"/><path class="a" d="M219.246,322.7h5.862v10.066h2.312V322.7h5.851v-2.275H219.246Z" transform="translate(-167.362 -320.427)"/><path class="a" d="M271.128,328.806a3.435,3.435,0,0,1-2.134,1.438,11.162,11.162,0,0,1-2.816.275,8.289,8.289,0,0,1-3.9-.705,4.11,4.11,0,0,1,0-6.408,8.187,8.187,0,0,1,3.9-.705,11.129,11.129,0,0,1,2.818.277,3.394,3.394,0,0,1,2.131,1.436l.165.261,2.075-.985-.185-.318c-1.123-1.953-3.481-2.945-7.005-2.945a10.023,10.023,0,0,0-5.437,1.241,6.422,6.422,0,0,0,0,9.867,10.043,10.043,0,0,0,5.434,1.231c3.535,0,5.9-.988,7.024-2.935l.188-.325-2.1-.96Z" transform="translate(-184.949 -320.427)"/><path class="a" d="M312.7,325.47h-9.4v-5.044h-2.312v12.341h2.312v-5.026h9.4v5.026h2.311V320.428H312.7Z" transform="translate(-204.046 -320.426)"/></g><g transform="translate(119.269)"><path class="b" d="M341.5,322.7h5.862v10.066h2.312V322.7h5.849v-2.275H341.5Z" transform="translate(-341.5 -320.422)"/><path class="b" d="M393.87,321.668a12.54,12.54,0,0,0-10.874,0,6.448,6.448,0,0,0,.005,9.884,12.769,12.769,0,0,0,10.874,0,6.437,6.437,0,0,0-.006-9.881Zm-5.435,8.851a8.179,8.179,0,0,1-3.9-.705,4.128,4.128,0,0,1,0-6.423,8.31,8.31,0,0,1,3.9-.689,8.2,8.2,0,0,1,3.895.705,4.1,4.1,0,0,1,0,6.408,8.189,8.189,0,0,1-3.9.705Z" transform="translate(-359.09 -320.422)"/><path class="b" d="M437.294,329.62l-3.393-9.191h-2.18l-3.4,9.191-4.344-9.191h-2.521l5.835,12.341h2.319l3.205-8.594,3.2,8.594h2.311l5.868-12.341h-2.545Z" transform="translate(-377.386 -320.422)"/><path class="b" d="M476.663,332.771H489.23v-2.25H478.971v-2.776h10.256v-2.272H478.971v-2.766h10.256v-2.275H476.66Z" transform="translate(-402.162 -320.424)"/><path class="b" d="M525.9,327.621c3.082-.325,4.645-1.511,4.645-3.533,0-1.6-.979-2.68-2.911-3.218a17.6,17.6,0,0,0-4.524-.444h-6.588v12.341h2.309v-5.026h3.927l5.135,5.026h3.252Zm2.336-3.533c0,.89-1.608,1.38-4.527,1.38h-4.879V322.7h4.751c3,0,4.655.489,4.655,1.384Z" transform="translate(-420.053 -320.417)"/></g></g><path class="c" d="M22.416,331.358V338.4l4.383-2.078v-7.075Z" transform="translate(-12.919 -306.377)"/><path class="c" d="M53.725,299.721v-5.156l-4.32,2.951v.02Z" transform="translate(-25.032 -290.504)"/><path class="c" d="M69.161,307.835v-5.1l-4.313,2.923h0Z" transform="translate(-31.963 -294.241)"/><path class="c" d="M25.958,297.8V287.078l-3.638,1.873V294.4l-4.32,2.1v-5.333l-4.193,2.16v5.147l-4.314,2.452v-5.375l-4.308,2.218V307.8c1.24-.535,20.583-9.959,20.774-10Z" transform="translate(-5.185 -287.078)"/><path class="c" d="M42.878,306.865h0v37.777s12.695-2.867,19.363-21.52a36.312,36.312,0,0,0,1.412-6.189S43.511,307.161,42.878,306.865Zm11.181,21.293-4.383-2.078v-7.075l4.383,2.109Z" transform="translate(-22.101 -296.133)"/></g><g class="d" transform="translate(307.228 304.701)"><path class="b" d="M554.415,319.64v1.913h1.924V319.64h1.244v4.689h-1.244v-1.8h-1.924v1.8h-1.244V319.64Z" transform="translate(-553.171 -319.603)"/><path class="b" d="M567.917,324.893a2.225,2.225,0,0,1-1.387.522,1.7,1.7,0,0,1-1.536-1.064,2.4,2.4,0,1,1,2.685-2.4,2.343,2.343,0,0,1-1.57,2.227.756.756,0,0,0,.558.308,1.575,1.575,0,0,0,.816-.348Zm-2.8-1.585a1.37,1.37,0,0,0,1.3-.79,1.329,1.329,0,0,0-.258-1.484,1.383,1.383,0,0,0-1.495-.321,1.346,1.346,0,0,0-.862,1.244,1.333,1.333,0,0,0,1.312,1.351Z" transform="translate(-557.497 -319.571)"/></g></g></svg>