<svg xmlns="http://www.w3.org/2000/svg" width="293.529" height="46.312" viewBox="0 0 293.529 46.312"><defs><style>.a{fill:#333;}.b{fill:#4db2eb;}</style></defs><g transform="translate(-600.362 -143.93)"><g transform="translate(600.362 143.93)"><g transform="translate(62.098 17.262)"><g transform="translate(0 0.007)"><path class="a" d="M735.169,186.058l-3.185-8.774h-2.049l-3.2,8.774-4.081-8.774h-2.368l5.482,11.782h2.178l3.011-8.2,3,8.2h2.172l5.515-11.782H739.26Z" transform="translate(-720.291 -177.282)"/><path class="a" d="M780.135,179.838l5.351,9.227h2.5l-6.81-11.782h-2.064l-6.8,11.782h2.481Z" transform="translate(-745.377 -177.282)"/><path class="a" d="M814.424,179.456h5.507v9.61H822.1v-9.61h5.5v-2.172H814.424Z" transform="translate(-765.683 -177.282)"/><path class="a" d="M865.536,185.28a3.224,3.224,0,0,1-2.005,1.373,10.317,10.317,0,0,1-2.645.263,7.677,7.677,0,0,1-3.664-.673,3.963,3.963,0,0,1,0-6.117,7.575,7.575,0,0,1,3.661-.673,10.3,10.3,0,0,1,2.647.264,3.192,3.192,0,0,1,2,1.371l.155.25,1.949-.941-.175-.3c-1.055-1.864-3.269-2.812-6.58-2.812a9.3,9.3,0,0,0-5.108,1.185,6.2,6.2,0,0,0,0,9.42,9.314,9.314,0,0,0,5.105,1.175c3.321,0,5.54-.943,6.6-2.8l.177-.311-1.972-.917Z" transform="translate(-784.579 -177.281)"/><path class="a" d="M907.164,182.1h-8.833v-4.815H896.16v11.782h2.171v-4.8h8.833v4.8h2.171v-11.78h-2.171Z" transform="translate(-805.097 -177.281)"/></g><g transform="translate(112.039)"><path class="b" d="M936.672,179.456h5.507v9.61h2.17v-9.61h5.494v-2.172H936.671Z" transform="translate(-936.671 -177.276)"/><path class="b" d="M988.243,178.467a11.61,11.61,0,0,0-10.215,0,6.221,6.221,0,0,0,.005,9.436,11.822,11.822,0,0,0,10.215,0,6.208,6.208,0,0,0-.005-9.434Zm-5.1,8.45a7.58,7.58,0,0,1-3.664-.673,3.981,3.981,0,0,1,0-6.132,7.694,7.694,0,0,1,3.664-.658,7.587,7.587,0,0,1,3.659.673,3.951,3.951,0,0,1,0,6.117A7.588,7.588,0,0,1,983.138,186.917Z" transform="translate(-955.57 -177.276)"/><path class="b" d="M1031.513,186.058l-3.187-8.774h-2.048l-3.193,8.774L1019,177.284h-2.368l5.482,11.782h2.179l3.011-8.2,3,8.2h2.171l5.513-11.782H1035.6Z" transform="translate(-975.231 -177.276)"/><path class="b" d="M1071.842,189.067h11.806v-2.148h-9.634v-2.65h9.634V182.1h-9.634v-2.641h9.634v-2.172h-11.806Z" transform="translate(-1001.852 -177.277)"/><path class="b" d="M1120.511,184.146c2.9-.311,4.363-1.443,4.363-3.373,0-1.524-.919-2.558-2.735-3.073a16.281,16.281,0,0,0-4.25-.424H1111.7v11.782h2.169v-4.8h3.689l4.824,4.8h3.055Zm2.194-3.373c0,.85-1.51,1.317-4.252,1.317h-4.583v-2.641h4.463c2.819,0,4.373.47,4.373,1.323Z" transform="translate(-1021.072 -177.268)"/></g></g><path class="b" d="M617.594,188.116v6.724l4.117-1.984V186.1Z" transform="translate(-608.672 -164.265)"/><path class="b" d="M648.641,156.343V151.42l-4.058,2.817v.019Z" transform="translate(-621.686 -147.542)"/><path class="b" d="M664.078,164.462v-4.873l-4.052,2.791h0Z" transform="translate(-629.133 -151.481)"/><path class="b" d="M619.877,154.167V143.93l-3.417,1.788v5.2l-4.059,2.008V147.84l-3.939,2.062v4.915l-4.054,2.339v-5.131l-4.046,2.114v9.572c1.164-.511,19.336-9.508,19.515-9.544Z" transform="translate(-600.362 -143.93)"/><path class="b" d="M638.055,163.72h0v36.065s11.926-2.738,18.189-20.544a35.138,35.138,0,0,0,1.325-5.909S638.649,164,638.055,163.72Zm10.5,20.328-4.117-1.984v-6.757l4.117,2.013Z" transform="translate(-618.537 -153.473)"/></g><g transform="translate(884.104 160.756)"><path class="a" d="M1149.52,176.495v1.826h1.807v-1.826h1.169v4.477h-1.167v-1.718h-1.807v1.718h-1.169v-4.477Z" transform="translate(-1148.353 -176.459)"/><path class="a" d="M1162.786,181.507a2.071,2.071,0,0,1-1.3.5,1.6,1.6,0,0,1-1.443-1.015,2.288,2.288,0,1,1,2.523-2.292,2.236,2.236,0,0,1-1.475,2.127.707.707,0,0,0,.523.294,1.465,1.465,0,0,0,.766-.332Zm-2.631-1.513a1.285,1.285,0,1,0-1.232-1.29,1.262,1.262,0,0,0,1.232,1.29Z" transform="translate(-1152.999 -176.426)"/></g></g></svg>