<svg xmlns="http://www.w3.org/2000/svg" width="186.244" height="25.676" viewBox="0 0 186.244 25.676"><defs><style>.a{fill:#ccc;}.b{fill:#333;}.c{fill:#a3a3a3;}.d{fill:#395fff;}</style></defs><g transform="translate(0 -102)"><g transform="translate(0 102)"><g transform="translate(180.118 9.186)"><path class="a" d="M1124.44,275.279v1.143h1.131v-1.143h.731v2.8h-.731v-1.073h-1.131v1.073h-.731v-2.8Z" transform="translate(-1123.709 -275.256)"/><path class="a" d="M1134.278,278.4a1.294,1.294,0,0,1-.815.312,1,1,0,0,1-.9-.636,1.432,1.432,0,1,1,1.578-1.435,1.4,1.4,0,0,1-.923,1.331.442.442,0,0,0,.328.184.916.916,0,0,0,.48-.206Zm-1.647-.949a.8.8,0,1,0-.771-.807.79.79,0,0,0,.771.809Z" transform="translate(-1128.152 -275.224)"/></g><g transform="translate(39.435 9.085)"><path class="b" d="M792.286,281.361l-2.022-5.572h-1.3l-2.029,5.572-2.592-5.572h-1.5l3.48,7.481H787.7l1.912-5.21,1.906,5.21H792.9l3.5-7.481h-1.518Z" transform="translate(-782.838 -275.775)"/><path class="b" d="M829.252,277.41l3.4,5.861h1.586l-4.324-7.483H828.6l-4.315,7.481h1.576Z" transform="translate(-807.182 -275.774)"/><path class="b" d="M857.822,277.168h3.5v6.1H862.7v-6.1h3.49V275.79h-8.366Z" transform="translate(-826.875 -275.775)"/><path class="b" d="M896.612,280.847a2.047,2.047,0,0,1-1.272.871,6.551,6.551,0,0,1-1.679.165,4.883,4.883,0,0,1-2.327-.426,2.518,2.518,0,0,1,0-3.885,4.816,4.816,0,0,1,2.325-.426,6.526,6.526,0,0,1,1.681.165,2.025,2.025,0,0,1,1.271.87l.1.158,1.238-.6-.11-.193c-.67-1.184-2.076-1.785-4.179-1.785a5.908,5.908,0,0,0-3.244.752,3.936,3.936,0,0,0,0,5.982,5.915,5.915,0,0,0,3.242.747c2.109,0,3.518-.6,4.189-1.779l.112-.2-1.252-.582Z" transform="translate(-845.207 -275.754)"/><path class="b" d="M929.922,278.836h-5.609v-3.054h-1.379v7.481h1.379v-3.047h5.609v3.047H931.3V275.78H929.92Z" transform="translate(-865.114 -275.769)"/><g transform="translate(71.14 0.007)"><path class="c" d="M955.207,277.168h3.5v6.1h1.379v-6.1h3.489V275.79h-8.364Z" transform="translate(-955.207 -275.782)"/><path class="c" d="M994.285,276.541a7.373,7.373,0,0,0-6.486,0,3.952,3.952,0,0,0,0,5.993,7.5,7.5,0,0,0,6.486,0,3.946,3.946,0,0,0,0-5.992Zm-3.242,5.365a4.821,4.821,0,0,1-2.326-.426,2.532,2.532,0,0,1-.33-3.566,2.494,2.494,0,0,1,.33-.328,4.882,4.882,0,0,1,2.326-.418,4.814,4.814,0,0,1,2.323.427,2.509,2.509,0,0,1,0,3.884,4.821,4.821,0,0,1-2.322.425Z" transform="translate(-973.54 -275.782)"/><path class="c" d="M1028.354,281.361l-2.022-5.572h-1.3L1023,281.361l-2.591-5.572h-1.5l3.48,7.481h1.384l1.911-5.21,1.907,5.21h1.378l3.5-7.481h-1.518Z" transform="translate(-992.619 -275.782)"/><path class="c" d="M1062.878,283.264h7.494V281.9h-6.117V280.22h6.117v-1.381h-6.117v-1.68h6.117V275.78h-7.494Z" transform="translate(-1018.44 -275.776)"/><path class="c" d="M1100.228,280.138c1.839-.2,2.77-.916,2.77-2.142,0-.967-.584-1.625-1.737-1.951a10.313,10.313,0,0,0-2.7-.27h-3.935v7.481h1.377v-3.047h2.343l3.063,3.047h1.94Zm1.393-2.142c0,.54-.959.836-2.7.836h-2.91v-1.678h2.833c1.79,0,2.776.3,2.776.844Z" transform="translate(-1037.089 -275.771)"/></g></g><path class="d" d="M701.026,284.092v4.269l2.614-1.259v-4.289Z" transform="translate(-695.357 -271.117)"/><path class="d" d="M725.1,258.31v-3.1h0v-.027l-2.576,1.789v.012Z" transform="translate(-707.984 -252.724)"/><path class="d" d="M737.4,264.784v-3.1l-2.573,1.775h0Z" transform="translate(-715.207 -257.274)"/><path class="d" d="M699.684,255.725v-6.5l-2.169,1.135v3.3l-2.577,1.275v-3.234l-2.5,1.307v3.12l-2.578,1.488v-3.257l-2.57,1.342v6.078c.74-.327,12.277-6.037,12.392-6.061Z" transform="translate(-687.289 -249.226)"/><path class="d" d="M717.328,264.984h0v22.9s7.573-1.738,11.549-13.045a22.256,22.256,0,0,0,.841-3.752S717.708,265.167,717.328,264.984ZM724,277.889l-2.614-1.259v-4.289L724,273.62Z" transform="translate(-704.93 -262.208)"/></g></g></svg>