<svg xmlns="http://www.w3.org/2000/svg" width="231.899" height="36.611" viewBox="0 0 231.899 36.611"><defs><style>.a{opacity:0.4;}.b{fill:#ccc;}.c{fill:#fff;}.d{fill:#a3a3a3;}.e{fill:#395fff;}</style></defs><g transform="translate(-72.009 -249.226)"><g class="a" transform="translate(296.28 262.586)"><path class="b" d="M509.339,275.279V276.7h1.409v-1.423h.911v3.488h-.911v-1.336h-1.409v1.336h-.911v-3.488Z" transform="translate(-508.428 -275.251)"/><path class="b" d="M519.734,279.183a1.612,1.612,0,0,1-1.015.388,1.247,1.247,0,0,1-1.125-.791,1.783,1.783,0,1,1,1.966-1.786,1.741,1.741,0,0,1-1.149,1.657.55.55,0,0,0,.408.229,1.142,1.142,0,0,0,.6-.257ZM517.684,278a1,1,0,1,0-.961-1.005.984.984,0,0,0,.961,1.008Z" transform="translate(-512.106 -275.224)"/></g><g transform="translate(121.112 262.858)"><path class="c" d="M179.323,282.727l-2.518-6.938h-1.619l-2.526,6.938-3.227-6.938h-1.872l4.334,9.315h1.722L176,278.617l2.374,6.487h1.717l4.36-9.315h-1.891Z" transform="translate(-167.561 -275.771)"/><path class="c" d="M215.188,277.808l4.231,7.3h1.974l-5.384-9.317h-1.627L209.01,285.1h1.962Z" transform="translate(-187.71 -275.771)"/><path class="c" d="M242.542,277.506H246.9v7.6h1.717v-7.6h4.345V275.79H242.542Z" transform="translate(-204.01 -275.772)"/><path class="c" d="M283.188,282.1a2.551,2.551,0,0,1-1.584,1.085,8.155,8.155,0,0,1-2.091.206,6.078,6.078,0,0,1-2.9-.531,3.135,3.135,0,0,1,0-4.837,5.994,5.994,0,0,1,2.895-.531,8.12,8.12,0,0,1,2.093.206,2.523,2.523,0,0,1,1.582,1.083l.123.2,1.542-.744-.137-.24c-.834-1.475-2.585-2.223-5.2-2.223a7.355,7.355,0,0,0-4.039.936,4.9,4.9,0,0,0-.539,6.91,4.851,4.851,0,0,0,.539.539,7.364,7.364,0,0,0,4.037.93c2.626,0,4.38-.745,5.216-2.215l.14-.244-1.559-.725Z" transform="translate(-219.184 -275.754)"/><path class="c" d="M316.355,279.585H309.37v-3.8h-1.716V285.1h1.716V281.3h6.984V285.1h1.716V275.78h-1.716Z" transform="translate(-235.662 -275.767)"/><g transform="translate(88.577 0.009)"><path class="d" d="M339.927,277.506h4.354v7.6H346v-7.6h4.344V275.79H339.927Z" transform="translate(-339.927 -275.78)"/><path class="d" d="M380.932,276.725a9.18,9.18,0,0,0-8.076,0,4.921,4.921,0,0,0,0,7.462,9.344,9.344,0,0,0,8.076,0,4.913,4.913,0,0,0,0-7.461Zm-4.037,6.681a6,6,0,0,1-2.9-.531,3.153,3.153,0,0,1,0-4.848,6.082,6.082,0,0,1,2.9-.52,5.992,5.992,0,0,1,2.892.532,3.124,3.124,0,0,1,.439,4.4,3.088,3.088,0,0,1-.439.439,6,6,0,0,1-2.891.53Z" transform="translate(-355.102 -275.78)"/><path class="d" d="M415.39,282.727l-2.518-6.938h-1.619l-2.524,6.938-3.226-6.938H403.63l4.334,9.315h1.723l2.38-6.487,2.375,6.487h1.712l4.358-9.315H418.62Z" transform="translate(-370.894 -275.78)"/><path class="d" d="M447.6,285.1h9.332v-1.7h-7.618v-2.1h7.617v-1.72h-7.617V277.5h7.617V275.78H447.6Z" transform="translate(-392.268 -275.775)"/><path class="d" d="M486.32,281.209c2.289-.244,3.45-1.14,3.45-2.667,0-1.2-.727-2.023-2.162-2.429a12.849,12.849,0,0,0-3.356-.336h-4.9v9.315h1.715V281.3h2.917l3.814,3.794h2.415Zm1.735-2.667c0,.672-1.194,1.041-3.362,1.041h-3.623v-2.089H484.6c2.228,0,3.457.376,3.457,1.051Z" transform="translate(-407.703 -275.771)"/></g></g><g transform="translate(72.009 249.226)"><path class="e" d="M85.746,284.406v5.316L89,288.154v-5.341Z" transform="translate(-78.687 -265.553)"/><path class="e" d="M110.455,259.076v-3.86h0v-.033l-3.208,2.227v.015Z" transform="translate(-89.139 -252.122)"/><path class="e" d="M122.751,265.543v-3.854l-3.2,2.21h0Z" transform="translate(-95.118 -255.284)"/><path class="e" d="M87.443,257.319v-8.093l-2.7,1.414v4.114l-3.209,1.587v-4.026l-3.114,1.627v3.885l-3.21,1.853v-4.056l-3.2,1.671v7.568c.921-.407,15.287-7.517,15.43-7.546Z" transform="translate(-72.009 -249.226)"/><path class="e" d="M102.048,264.984h0V293.5s9.429-2.165,14.381-16.242a27.766,27.766,0,0,0,1.048-4.671S102.522,265.212,102.048,264.984Zm8.3,16.069-3.254-1.568v-5.341l3.254,1.593Z" transform="translate(-86.611 -256.886)"/></g></g></svg>