<svg xmlns="http://www.w3.org/2000/svg" width="291.448" height="46.013" viewBox="0 0 291.448 46.013"><defs><style>.a{fill:#ccc;}.b{fill:#333;}.c{fill:#a3a3a3;}.d{fill:#395fff;}</style></defs><g transform="translate(-687.289 -249.226)"><g transform="translate(687.289 249.226)"><g transform="translate(281.861 16.791)"><path class="a" d="M1124.853,275.279v1.788h1.77v-1.788h1.145v4.383h-1.145v-1.679h-1.77v1.679h-1.144v-4.383Z" transform="translate(-1123.709 -275.244)"/><path class="a" d="M1135.974,280.2a2.025,2.025,0,0,1-1.276.488,1.567,1.567,0,0,1-1.413-.995,2.24,2.24,0,1,1,2.47-2.245,2.187,2.187,0,0,1-1.444,2.082.691.691,0,0,0,.513.287,1.432,1.432,0,0,0,.75-.323Zm-2.577-1.485a1.258,1.258,0,1,0-1.207-1.263,1.237,1.237,0,0,0,1.207,1.266Z" transform="translate(-1126.388 -275.224)"/></g><g transform="translate(61.71 17.133)"><path class="b" d="M797.623,284.508l-3.165-8.719h-2.036l-3.175,8.719-4.056-8.719h-2.353l5.446,11.707h2.164l2.993-8.153,2.983,8.153h2.157l5.48-11.707h-2.376Z" transform="translate(-782.838 -275.766)"/><path class="b" d="M832.055,278.326l5.317,9.171h2.481l-6.767-11.709h-2.045l-6.752,11.707h2.466Z" transform="translate(-797.518 -275.766)"/><path class="b" d="M857.822,277.947h5.472v9.55h2.158v-9.55h5.462V275.79H857.822Z" transform="translate(-809.394 -275.767)"/><path class="b" d="M900.89,283.724a3.2,3.2,0,0,1-1.991,1.363,10.248,10.248,0,0,1-2.628.258,7.642,7.642,0,0,1-3.641-.667,3.94,3.94,0,0,1,0-6.079,7.536,7.536,0,0,1,3.638-.667,10.209,10.209,0,0,1,2.63.258,3.169,3.169,0,0,1,1.989,1.361l.155.248,1.938-.935-.172-.3c-1.048-1.854-3.249-2.794-6.539-2.794a9.245,9.245,0,0,0-5.076,1.177,6.16,6.16,0,0,0,0,9.362,9.257,9.257,0,0,0,5.073,1.168c3.3,0,5.505-.936,6.556-2.784l.175-.307-1.959-.911Z" transform="translate(-820.448 -275.754)"/><path class="b" d="M933.869,280.563h-8.777v-4.779h-2.158V287.49h2.158v-4.768h8.777v4.768h2.154V275.78h-2.156Z" transform="translate(-832.453 -275.763)"/><g transform="translate(111.324 0.011)"><path class="c" d="M955.207,277.947h5.472v9.55h2.157v-9.55H968.3V275.79H955.207Z" transform="translate(-955.207 -275.778)"/><path class="c" d="M998.726,276.965a11.538,11.538,0,0,0-10.15,0,6.184,6.184,0,0,0,0,9.378,11.743,11.743,0,0,0,10.15,0,6.175,6.175,0,0,0,0-9.377Zm-5.073,8.4a7.542,7.542,0,0,1-3.64-.667,3.962,3.962,0,0,1-.517-5.58,3.9,3.9,0,0,1,.517-.513,7.64,7.64,0,0,1,3.64-.654,7.532,7.532,0,0,1,3.635.668,3.927,3.927,0,0,1,0,6.078,7.543,7.543,0,0,1-3.634.666Z" transform="translate(-966.262 -275.777)"/><path class="c" d="M1033.689,284.508l-3.165-8.719h-2.035l-3.173,8.719-4.054-8.719h-2.354l5.447,11.707h2.166l2.991-8.153,2.984,8.153h2.156l5.477-11.707h-2.376Z" transform="translate(-977.767 -275.777)"/><path class="c" d="M1062.878,287.492h11.727v-2.131h-9.573v-2.633h9.573v-2.162h-9.573v-2.629h9.573V275.78h-11.727Z" transform="translate(-993.339 -275.774)"/><path class="c" d="M1103.389,282.6c2.877-.307,4.335-1.433,4.335-3.351,0-1.514-.914-2.543-2.718-3.052a16.141,16.141,0,0,0-4.217-.422h-6.157v11.707h2.155v-4.768h3.666l4.793,4.768h3.035Zm2.18-3.351c0,.845-1.5,1.309-4.226,1.309h-4.554v-2.625h4.434c2.8,0,4.345.472,4.345,1.321Z" transform="translate(-1004.584 -275.771)"/></g></g><path class="d" d="M701.026,284.815V291.5l4.09-1.97v-6.712Z" transform="translate(-692.154 -261.121)"/><path class="d" d="M726.558,260.076v-4.851h0v-.042l-4.031,2.8V258Z" transform="translate(-699.769 -251.336)"/><path class="d" d="M738.853,266.533v-4.844l-4.026,2.777h0Z" transform="translate(-704.125 -253.64)"/><path class="d" d="M706.686,259.4V249.226L703.291,251v5.171l-4.033,2v-5.06l-3.914,2.045v4.883l-4.034,2.329v-5.1l-4.022,2.1v9.511c1.158-.512,19.213-9.448,19.392-9.484Z" transform="translate(-687.289 -249.226)"/><path class="d" d="M717.328,264.984h0V300.82s11.85-2.72,18.073-20.413a34.835,34.835,0,0,0,1.317-5.871S717.924,265.27,717.328,264.984Zm10.436,20.2-4.09-1.971V276.5l4.09,2Z" transform="translate(-697.927 -254.807)"/></g></g></svg>